<svg width="67" height="60" viewBox="0 0 67 60" fill="none" xmlns="http://www.w3.org/2000/svg">
    <path d="M23.3333 0H43.3333L50 6.66667H63.3333C64.2174 6.66667 65.0652 7.01786 65.6904 7.64298C66.3155 8.2681 66.6667 9.11594 66.6667 10V56.6667C66.6667 57.5507 66.3155 58.3986 65.6904 59.0237C65.0652 59.6488 64.2174 60 63.3333 60H3.33333C2.44928 60 1.60143 59.6488 0.976311 59.0237C0.351189 58.3986 0 57.5507 0 56.6667V10C0 9.11594 0.351189 8.2681 0.976311 7.64298C1.60143 7.01786 2.44928 6.66667 3.33333 6.66667H16.6667L23.3333 0ZM33.3333 53.3333C38.6377 53.3333 43.7247 51.2262 47.4755 47.4755C51.2262 43.7247 53.3333 38.6377 53.3333 33.3333C53.3333 28.029 51.2262 22.9419 47.4755 19.1912C43.7247 15.4405 38.6377 13.3333 33.3333 13.3333C28.029 13.3333 22.9419 15.4405 19.1912 19.1912C15.4405 22.9419 13.3333 28.029 13.3333 33.3333C13.3333 38.6377 15.4405 43.7247 19.1912 47.4755C22.9419 51.2262 28.029 53.3333 33.3333 53.3333ZM33.3333 46.6667C29.7971 46.6667 26.4057 45.2619 23.9052 42.7614C21.4048 40.2609 20 36.8696 20 33.3333C20 29.7971 21.4048 26.4057 23.9052 23.9052C26.4057 21.4048 29.7971 20 33.3333 20C36.8696 20 40.2609 21.4048 42.7614 23.9052C45.2619 26.4057 46.6667 29.7971 46.6667 33.3333C46.6667 36.8696 45.2619 40.2609 42.7614 42.7614C40.2609 45.2619 36.8696 46.6667 33.3333 46.6667Z"
          fill="#BDBDBD"/>
</svg>
